<?xml version="1.0"?>
<svg xmlns="http://www.w3.org/2000/svg" viewBox="0 0 16 16">
    <path style="line-height:normal;text-indent:0;text-align:start;text-decoration-line:none;text-decoration-style:solid;text-decoration-color:#000;text-transform:none;block-progression:tb;isolation:auto;mix-blend-mode:normal" d="M 4.5 2 C 3.6774686 2 3 2.6774686 3 3.5 L 3 12.5 C 3 13.322531 3.6774686 14 4.5 14 L 11.5 14 C 12.322531 14 13 13.322531 13 12.5 L 13 5.2929688 L 12.853516 5.1464844 L 9.7070312 2 L 4.5 2 z M 4.5 3 L 9 3 L 9 6 L 12 6 L 12 12.5 C 12 12.781469 11.781469 13 11.5 13 L 4.5 13 C 4.2185314 13 4 12.781469 4 12.5 L 4 3.5 C 4 3.2185314 4.2185314 3 4.5 3 z M 10 3.7070312 L 11.292969 5 L 10 5 L 10 3.7070312 z M 6 8 L 6 9 L 6.5 9 L 9.5 9 L 10 9 L 10 8 L 9.5 8 L 6.5 8 L 6 8 z M 6 10 L 6 11 L 6.5 11 L 8.5 11 L 9 11 L 9 10 L 8.5 10 L 6.5 10 L 6 10 z" font-weight="400" font-family="sans-serif" white-space="normal" overflow="visible"/>
</svg>
